<svg version="1.1" xmlns="http://www.w3.org/2000/svg" xmlns:xlink="http://www.w3.org/1999/xlink" width="724" height="1165"><defs/><g><g transform="translate(-574,-70) scale(1,1)"><path fill="#C0C0C0" stroke="none" d="M 953 231 L 1101 231 Q 1111 231 1111 241 L 1111 261 Q 1111 271 1101 271 L 953 271 Q 943 271 943 261 L 943 241 Q 943 231 953 231 Z" opacity="0.2"/></g><g transform="translate(-574,-70) scale(1,1)"><path fill="#ffffff" stroke="none" d="M 946 224 L 1094 224 Q 1104 224 1104 234 L 1104 254 Q 1104 264 1094 264 L 946 264 Q 936 264 936 254 L 936 234 Q 936 224 946 224 Z"/></g><g transform="translate(-574,-70) scale(1,1)"><path fill="none" stroke="#000000" d="M 946 224 L 1094 224 Q 1104 224 1104 234 L 1104 254 Q 1104 264 1094 264 L 946 264 Q 936 264 936 254 L 936 234 Q 936 224 946 224 Z" stroke-miterlimit="10"/></g><g transform="translate(-574,-70) scale(1,1)"><g><path fill="none" stroke="none"/><text fill="#000000" stroke="none" font-family="Arial" font-size="13px" font-style="normal" font-weight="bold" text-decoration="none" x="948.55078125" y="243.5">Clicca su "Lista Pazienti"</text></g></g><g transform="translate(-574,-70) scale(1,1)"><path fill="#C0C0C0" stroke="none" d="M 1001 151 L 1053 151 Q 1063 151 1063 161 L 1063 181 Q 1063 191 1053 191 L 1001 191 Q 991 191 991 181 L 991 161 Q 991 151 1001 151 Z" opacity="0.2"/></g><g transform="translate(-574,-70) scale(1,1)"><path fill="#ffffff" stroke="none" d="M 994 144 L 1046 144 Q 1056 144 1056 154 L 1056 174 Q 1056 184 1046 184 L 994 184 Q 984 184 984 174 L 984 154 Q 984 144 994 144 Z"/></g><g transform="translate(-574,-70) scale(1,1)"><path fill="none" stroke="#000000" d="M 994 144 L 1046 144 Q 1056 144 1056 154 L 1056 174 Q 1056 184 1046 184 L 994 184 Q 984 184 984 174 L 984 154 Q 984 144 994 144 Z" stroke-miterlimit="10"/></g><g transform="translate(-574,-70) scale(1,1)"><g><path fill="none" stroke="none"/><text fill="#000000" stroke="none" font-family="Arial" font-size="13px" font-style="normal" font-weight="bold" text-decoration="none" x="1004.095947265625" y="163.5">Login</text></g></g><g transform="translate(-574,-70) scale(1,1)"><path fill="#C0C0C0" stroke="none" d="M 753 567 L 957 567 Q 967 567 967 577 L 967 610 Q 967 620 957 620 L 753 620 Q 743 620 743 610 L 743 577 Q 743 567 753 567 Z" opacity="0.2"/></g><g transform="translate(-574,-70) scale(1,1)"><path fill="#ffffff" stroke="none" d="M 746 560 L 950 560 Q 960 560 960 570 L 960 603 Q 960 613 950 613 L 746 613 Q 736 613 736 603 L 736 570 Q 736 560 746 560 Z"/></g><g transform="translate(-574,-70) scale(1,1)"><path fill="none" stroke="#000000" d="M 746 560 L 950 560 Q 960 560 960 570 L 960 603 Q 960 613 950 613 L 746 613 Q 736 613 736 603 L 736 570 Q 736 560 746 560 Z" stroke-miterlimit="10"/></g><g transform="translate(-574,-70) scale(1,1)"><g><path fill="none" stroke="none"/><text fill="#000000" stroke="none" font-family="Arial" font-size="13px" font-style="normal" font-weight="bold" text-decoration="none" x="763.6904296875" y="579.5">Clicca su "Modifica cartella di</text><text fill="#000000" stroke="none" font-family="Arial" font-size="13px" font-style="normal" font-weight="bold" text-decoration="none" x="798.364501953125" y="592.5">Nome Cognome"</text></g></g><g transform="translate(-574,-70) scale(1,1)"><path fill="#C0C0C0" stroke="none" d="M 999 415.5 L 1023.5 391 L 1047 415.5 L 1023.5 439 L 999 415.5" opacity="0.2"/></g><g transform="translate(-574,-70) scale(1,1)"><path fill="#ffffff" stroke="none" d="M 992 408 L 1016 384 L 1040 408 L 1016 432 L 992 408"/></g><g transform="translate(-574,-70) scale(1,1)"><path fill="none" stroke="#000000" d="M 992 408 L 1016 384 L 1040 408 L 1016 432 L 992 408 L 992 408" stroke-miterlimit="10"/></g><g transform="translate(-574,-70) scale(1,1)"><path fill="none" stroke="#000000" d="M 1020 185 L 1020 223" stroke-miterlimit="10"/></g><g transform="translate(-574,-70) scale(1,1)"><path fill="none" stroke="#000000" d="M 1015.790482243984 212.83732514237585 L 1020 223 L 1024.2095177560159 212.83732514237585" stroke-miterlimit="10"/></g><g transform="translate(-574,-70) scale(1,1)"><path fill="none" stroke="#000000" d="M 1016 264 L 1016 384" stroke-miterlimit="10"/></g><g transform="translate(-574,-70) scale(1,1)"><path fill="none" stroke="#000000" d="M 1011.790482243984 373.83732514237585 L 1016 384 L 1020.209517756016 373.83732514237585" stroke-miterlimit="10"/></g><g transform="translate(-574,-70) scale(1,1)"><path fill="#C0C0C0" stroke="none" d="M 1081 487 L 1285 487 Q 1295 487 1295 497 L 1295 530 Q 1295 540 1285 540 L 1081 540 Q 1071 540 1071 530 L 1071 497 Q 1071 487 1081 487 Z" opacity="0.2"/></g><g transform="translate(-574,-70) scale(1,1)"><path fill="#ffffff" stroke="none" d="M 1074 480 L 1278 480 Q 1288 480 1288 490 L 1288 523 Q 1288 533 1278 533 L 1074 533 Q 1064 533 1064 523 L 1064 490 Q 1064 480 1074 480 Z"/></g><g transform="translate(-574,-70) scale(1,1)"><path fill="none" stroke="#000000" d="M 1074 480 L 1278 480 Q 1288 480 1288 490 L 1288 523 Q 1288 533 1278 533 L 1074 533 Q 1064 533 1064 523 L 1064 490 Q 1064 480 1074 480 Z" stroke-miterlimit="10"/></g><g transform="translate(-574,-70) scale(1,1)"><g><path fill="none" stroke="none"/><text fill="#000000" stroke="none" font-family="Arial" font-size="13px" font-style="normal" font-weight="bold" text-decoration="none" x="1086.748779296875" y="499.5">Clicca su "Visualizza cartella di</text><text fill="#000000" stroke="none" font-family="Arial" font-size="13px" font-style="normal" font-weight="bold" text-decoration="none" x="1126.364501953125" y="512.5">Nome Cognome"</text></g></g><g transform="translate(-574,-70) scale(1,1)"><path fill="#C0C0C0" stroke="none" d="M 1097 575 L 1269 575 Q 1279 575 1279 585 L 1279 613 Q 1279 623 1269 623 L 1097 623 Q 1087 623 1087 613 L 1087 585 Q 1087 575 1097 575 Z" opacity="0.2"/></g><g transform="translate(-574,-70) scale(1,1)"><path fill="#ffffff" stroke="none" d="M 1090 568 L 1262 568 Q 1272 568 1272 578 L 1272 606 Q 1272 616 1262 616 L 1090 616 Q 1080 616 1080 606 L 1080 578 Q 1080 568 1090 568 Z"/></g><g transform="translate(-574,-70) scale(1,1)"><path fill="none" stroke="#000000" d="M 1090 568 L 1262 568 Q 1272 568 1272 578 L 1272 606 Q 1272 616 1262 616 L 1090 616 Q 1080 616 1080 606 L 1080 578 Q 1080 568 1090 568 Z" stroke-miterlimit="10"/></g><g transform="translate(-574,-70) scale(1,1)"><g><path fill="none" stroke="none"/><text fill="#000000" stroke="none" font-family="Arial" font-size="13px" font-style="normal" font-weight="bold" text-decoration="none" x="1094.803955078125" y="587.5">Clicca su "Modifica Cartella"</text></g></g><g transform="translate(-574,-70) scale(1,1)"><path fill="none" stroke="#000000" d="M 991 408 L 848 408 L 848 559" stroke-miterlimit="10"/></g><g transform="translate(-574,-70) scale(1,1)"><path fill="none" stroke="#000000" d="M 843.790482243984 548.8373251423759 L 848 559 L 852.209517756016 548.8373251423759" stroke-miterlimit="10"/></g><g transform="translate(-574,-70) scale(1,1)"><path fill="none" stroke="#000000" d="M 1041 408 L 1176 408 L 1176 479" stroke-miterlimit="10"/></g><g transform="translate(-574,-70) scale(1,1)"><path fill="none" stroke="#000000" d="M 1171.7904822439841 468.83732514237585 L 1176 479 L 1180.2095177560159 468.83732514237585" stroke-miterlimit="10"/></g><g transform="translate(-574,-70) scale(1,1)"><path fill="none" stroke="#000000" d="M 1176 534 L 1176 567" stroke-miterlimit="10"/></g><g transform="translate(-574,-70) scale(1,1)"><path fill="none" stroke="#000000" d="M 1171.7904822439841 556.8373251423759 L 1176 567 L 1180.2095177560159 556.8373251423759" stroke-miterlimit="10"/></g><g transform="translate(-574,-70) scale(1,1)"><path fill="#C0C0C0" stroke="none" d="M 897 783 L 1173 783 Q 1183 783 1183 793 L 1183 813 Q 1183 823 1173 823 L 897 823 Q 887 823 887 813 L 887 793 Q 887 783 897 783 Z" opacity="0.2"/></g><g transform="translate(-574,-70) scale(1,1)"><path fill="#ffffff" stroke="none" d="M 890 776 L 1166 776 Q 1176 776 1176 786 L 1176 806 Q 1176 816 1166 816 L 890 816 Q 880 816 880 806 L 880 786 Q 880 776 890 776 Z"/></g><g transform="translate(-574,-70) scale(1,1)"><path fill="none" stroke="#000000" d="M 890 776 L 1166 776 Q 1176 776 1176 786 L 1176 806 Q 1176 816 1166 816 L 890 816 Q 880 816 880 806 L 880 786 Q 880 776 890 776 Z" stroke-miterlimit="10"/></g><g transform="translate(-574,-70) scale(1,1)"><g><path fill="none" stroke="none"/><text fill="#000000" stroke="none" font-family="Arial" font-size="13px" font-style="normal" font-weight="bold" text-decoration="none" x="915.8369140625" y="795.5">Visualizza la pagina "Modifica Cartella"</text></g></g><g transform="translate(-574,-70) scale(1,1)"><path fill="none" stroke="#000000" d="M 961 590 L 1024 592 L 1024 671" stroke-miterlimit="10"/></g><g transform="translate(-574,-70) scale(1,1)"><path fill="none" stroke="#000000" d="M 1019.790482243984 660.8373251423759 L 1024 671 L 1028.2095177560159 660.8373251423759" stroke-miterlimit="10"/></g><g transform="translate(-574,-70) scale(1,1)"><path fill="none" stroke="#000000" d="M 1079 592 L 1024 592 L 1024 671" stroke-miterlimit="10"/></g><g transform="translate(-574,-70) scale(1,1)"><path fill="none" stroke="#000000" d="M 1019.790482243984 660.8373251423759 L 1024 671 L 1028.2095177560159 660.8373251423759" stroke-miterlimit="10"/></g><g transform="translate(-574,-70) scale(1,1)"><path fill="#C0C0C0" stroke="none" d="M 1007 703.5 L 1031.5 679 L 1055 703.5 L 1031.5 727 L 1007 703.5" opacity="0.2"/></g><g transform="translate(-574,-70) scale(1,1)"><path fill="#ffffff" stroke="none" d="M 1000 696 L 1024 672 L 1048 696 L 1024 720 L 1000 696"/></g><g transform="translate(-574,-70) scale(1,1)"><path fill="none" stroke="#000000" d="M 1000 696 L 1024 672 L 1048 696 L 1024 720 L 1000 696 L 1000 696" stroke-miterlimit="10"/></g><g transform="translate(-574,-70) scale(1,1)"><path fill="none" stroke="#000000" d="M 1025 721 L 1027 775" stroke-miterlimit="10"/></g><g transform="translate(-574,-70) scale(1,1)"><path fill="none" stroke="#000000" d="M 1022.417228991706 765.0000895061236 L 1027 775 L 1030.8304960648886 764.6884870219317" stroke-miterlimit="10"/></g><g transform="translate(-574,-70) scale(1,1)"><path fill="#C0C0C0" stroke="none" d="M 897 871 L 1172 871 Q 1182 871 1182 881 L 1182 901 Q 1182 911 1172 911 L 897 911 Q 887 911 887 901 L 887 881 Q 887 871 897 871 Z" opacity="0.2"/></g><g transform="translate(-574,-70) scale(1,1)"><path fill="#ffffff" stroke="none" d="M 890 864 L 1165 864 Q 1175 864 1175 874 L 1175 894 Q 1175 904 1165 904 L 890 904 Q 880 904 880 894 L 880 874 Q 880 864 890 864 Z"/></g><g transform="translate(-574,-70) scale(1,1)"><path fill="none" stroke="#000000" d="M 890 864 L 1165 864 Q 1175 864 1175 874 L 1175 894 Q 1175 904 1165 904 L 890 904 Q 880 904 880 894 L 880 874 Q 880 864 890 864 Z" stroke-miterlimit="10"/></g><g transform="translate(-574,-70) scale(1,1)"><g><path fill="none" stroke="none"/><text fill="#000000" stroke="none" font-family="Arial" font-size="13px" font-style="normal" font-weight="bold" text-decoration="none" x="919.123291015625" y="883.5">Modifica la cartella compilando il form</text></g></g><g transform="translate(-574,-70) scale(1,1)"><path fill="none" stroke="#000000" d="M 1028 817 L 1027 863" stroke-miterlimit="10"/></g><g transform="translate(-574,-70) scale(1,1)"><path fill="none" stroke="#000000" d="M 1023.0123521078249 852.7482360401718 L 1027 863 L 1031.429398949577 852.9312153193404" stroke-miterlimit="10"/></g><g transform="translate(-574,-70) scale(1,1)"><path fill="#C0C0C0" stroke="none" d="M 897 943 L 1172 943 Q 1182 943 1182 953 L 1182 973 Q 1182 983 1172 983 L 897 983 Q 887 983 887 973 L 887 953 Q 887 943 897 943 Z" opacity="0.2"/></g><g transform="translate(-574,-70) scale(1,1)"><path fill="#ffffff" stroke="none" d="M 890 936 L 1165 936 Q 1175 936 1175 946 L 1175 966 Q 1175 976 1165 976 L 890 976 Q 880 976 880 966 L 880 946 Q 880 936 890 936 Z"/></g><g transform="translate(-574,-70) scale(1,1)"><path fill="none" stroke="#000000" d="M 890 936 L 1165 936 Q 1175 936 1175 946 L 1175 966 Q 1175 976 1165 976 L 890 976 Q 880 976 880 966 L 880 946 Q 880 936 890 936 Z" stroke-miterlimit="10"/></g><g transform="translate(-574,-70) scale(1,1)"><g><path fill="none" stroke="none"/><text fill="#000000" stroke="none" font-family="Arial" font-size="13px" font-style="normal" font-weight="bold" text-decoration="none" x="958.935791015625" y="955.5">Clicca il bottone "Salva"</text></g></g><g transform="translate(-574,-70) scale(1,1)"><path fill="none" stroke="#000000" d="M 1027 905 L 1027 935" stroke-miterlimit="10"/></g><g transform="translate(-574,-70) scale(1,1)"><path fill="none" stroke="#000000" d="M 1022.790482243984 924.8373251423759 L 1027 935 L 1031.2095177560159 924.8373251423759" stroke-miterlimit="10"/></g><g transform="translate(-574,-70) scale(1,1)"><g><path fill="none" stroke="none"/><text fill="#000000" stroke="none" font-family="Arial" font-size="13px" font-style="normal" font-weight="normal" text-decoration="none" x="1037" y="394">[else]</text></g></g><g transform="translate(-574,-70) scale(1,1)"><path fill="#C0C0C0" stroke="none" d="M 1015 1043.5 L 1035.5 1023 L 1055 1043.5 L 1035.5 1063 L 1015 1043.5" opacity="0.2"/></g><g transform="translate(-574,-70) scale(1,1)"><path fill="#ffffff" stroke="none" d="M 1008 1036 L 1028 1016 L 1048 1036 L 1028 1056 L 1008 1036"/></g><g transform="translate(-574,-70) scale(1,1)"><path fill="none" stroke="#000000" d="M 1008 1036 L 1028 1016 L 1048 1036 L 1028 1056 L 1008 1036 L 1008 1036" stroke-miterlimit="10"/></g><g transform="translate(-574,-70) scale(1,1)"><path fill="none" stroke="#000000" d="M 1027 977 L 1028 1015" stroke-miterlimit="10"/></g><g transform="translate(-574,-70) scale(1,1)"><path fill="none" stroke="#000000" d="M 1023.5245928199677 1004.9515806928197 L 1028 1015 L 1031.940714666741 1004.7301038021151" stroke-miterlimit="10"/></g><g transform="translate(-574,-70) scale(1,1)"><path fill="none" stroke="#000000" d="M 1007 1036 L 800 1040 L 800 880 L 879 881" stroke-miterlimit="10"/></g><g transform="translate(-574,-70) scale(1,1)"><path fill="none" stroke="#000000" d="M 868.7848584645136 885.0805494005072 L 879 881 L 868.8914199974118 876.6621883015425" stroke-miterlimit="10"/></g><g transform="translate(-574,-70) scale(1,1)"><g><path fill="none" stroke="none"/><text fill="#000000" stroke="none" font-family="Arial" font-size="13px" font-style="normal" font-weight="normal" text-decoration="none" x="589" y="954">[Mancano dati o i dati sono errati]</text></g></g><g transform="translate(-574,-70) scale(1,1)"><path fill="#C0C0C0" stroke="none" d="M 841 1103 L 1229.35009765625 1103 Q 1239.35009765625 1103 1239.35009765625 1113 L 1239.35009765625 1133 Q 1239.35009765625 1143 1229.35009765625 1143 L 841 1143 Q 831 1143 831 1133 L 831 1113 Q 831 1103 841 1103 Z" opacity="0.2"/></g><g transform="translate(-574,-70) scale(1,1)"><path fill="#ffffff" stroke="none" d="M 834 1096 L 1222.35009765625 1096 Q 1232.35009765625 1096 1232.35009765625 1106 L 1232.35009765625 1126 Q 1232.35009765625 1136 1222.35009765625 1136 L 834 1136 Q 824 1136 824 1126 L 824 1106 Q 824 1096 834 1096 Z"/></g><g transform="translate(-574,-70) scale(1,1)"><path fill="none" stroke="#000000" d="M 834 1096 L 1222.35009765625 1096 Q 1232.35009765625 1096 1232.35009765625 1106 L 1232.35009765625 1126 Q 1232.35009765625 1136 1222.35009765625 1136 L 834 1136 Q 824 1136 824 1126 L 824 1106 Q 824 1096 834 1096 Z" stroke-miterlimit="10"/></g><g transform="translate(-574,-70) scale(1,1)"><g><path fill="none" stroke="none"/><text fill="#000000" stroke="none" font-family="Arial" font-size="13px" font-style="normal" font-weight="bold" text-decoration="none" x="841.85546875" y="1115.5">Viene aggiornata la cartella e viene visualizzata la cartella clinica</text></g></g><g transform="translate(-574,-70) scale(1,1)"><path fill="none" stroke="#000000" d="M 1028 1057 L 1028 1095" stroke-miterlimit="10"/></g><g transform="translate(-574,-70) scale(1,1)"><path fill="none" stroke="#000000" d="M 1023.790482243984 1084.837325142376 L 1028 1095 L 1032.2095177560159 1084.837325142376" stroke-miterlimit="10"/></g><g transform="translate(-574,-70) scale(1,1)"><path fill="#C0C0C0" stroke="none" d="M 1023 1219.5 C 1023 1212.59644 1028.59644 1207 1035.5 1207 C 1042.40356 1207 1048 1212.59644 1048 1219.5 C 1048 1226.40356 1042.40356 1232 1035.5 1232 C 1028.59644 1232 1023 1226.40356 1023 1219.5 Z" opacity="0.2"/></g><g transform="translate(-574,-70) scale(1,1)"><path fill="none" stroke="#000000" d="M 1016 1212.5 C 1016 1205.59644 1021.59644 1200 1028.5 1200 C 1035.40356 1200 1041 1205.59644 1041 1212.5 C 1041 1219.40356 1035.40356 1225 1028.5 1225 C 1021.59644 1225 1016 1219.40356 1016 1212.5 Z" stroke-miterlimit="10"/></g><g transform="translate(-574,-70) scale(1,1)"><path fill="#000000" stroke="none" d="M 1021 1212.5 C 1021 1208.357864 1024.357864 1205 1028.5 1205 C 1032.642136 1205 1036 1208.357864 1036 1212.5 C 1036 1216.642136 1032.642136 1220 1028.5 1220 C 1024.357864 1220 1021 1216.642136 1021 1212.5 Z"/></g><g transform="translate(-574,-70) scale(1,1)"><path fill="none" stroke="#000000" d="M 1028 1137 L 1028 1199" stroke-miterlimit="10"/></g><g transform="translate(-574,-70) scale(1,1)"><path fill="none" stroke="#000000" d="M 1023.790482243984 1188.837325142376 L 1028 1199 L 1032.2095177560159 1188.837325142376" stroke-miterlimit="10"/></g><g transform="translate(-574,-70) scale(1,1)"><g><path fill="none" stroke="none"/><text fill="#000000" stroke="none" font-family="Arial" font-size="13px" font-style="normal" font-weight="normal" text-decoration="none" x="1037" y="1082">[I dati sono completi e corretti]</text></g></g><g transform="translate(-574,-70) scale(1,1)"><path fill="#C0C0C0" stroke="none" d="M 1015 96.5 C 1015 91.2532944 1019.2532944 87 1024.5 87 C 1029.7467056 87 1034 91.2532944 1034 96.5 C 1034 101.7467056 1029.7467056 106 1024.5 106 C 1019.2532944 106 1015 101.7467056 1015 96.5 Z" opacity="0.2"/></g><g transform="translate(-574,-70) scale(1,1)"><path fill="#000000" stroke="none" d="M 1008 89.5 C 1008 84.2532944 1012.2532944 80 1017.5 80 C 1022.7467056 80 1027 84.2532944 1027 89.5 C 1027 94.7467056 1022.7467056 99 1017.5 99 C 1012.2532944 99 1008 94.7467056 1008 89.5 Z"/></g><g transform="translate(-574,-70) scale(1,1)"><path fill="none" stroke="#000000" d="M 1017 100 L 1019 143" stroke-miterlimit="10"/></g><g transform="translate(-574,-70) scale(1,1)"><path fill="none" stroke="#000000" d="M 1014.322856065764 133.04388004198225 L 1019 143 L 1022.7327997441373 132.6527198708951" stroke-miterlimit="10"/></g></g></svg>