<svg version="1.1" xmlns="http://www.w3.org/2000/svg" xmlns:xlink="http://www.w3.org/1999/xlink" width="1503.955078125" height="1212"><defs/><g><g transform="translate(-670,-102) scale(1,1)"><rect fill="#C0C0C0" stroke="none" x="687" y="119" width="440" height="621" opacity="0.2"/></g><g transform="translate(-670,-102) scale(1,1)"><rect fill="#ffffff" stroke="none" x="680" y="112" width="440" height="621"/></g><g transform="translate(-670,-102) scale(1,1)"><path fill="none" stroke="#000000" d="M 680 112 L 1120 112 L 1120 733 L 680 733 L 680 112 Z Z" stroke-miterlimit="10"/></g><g transform="translate(-670,-102) scale(1,1)"><path fill="none" stroke="#000000" d="M 680 137 L 1120 137" stroke-miterlimit="10"/></g><g transform="translate(-670,-102) scale(1,1)"><path fill="none" stroke="#000000" d="M 680 325 L 1120 325" stroke-miterlimit="10"/></g><g transform="translate(-670,-102) scale(1,1)"><g><path fill="none" stroke="none"/><text fill="#000000" stroke="none" font-family="Arial" font-size="13px" font-style="normal" font-weight="bold" text-decoration="none" x="874.70458984375" y="131.5">Paziente</text></g></g><g transform="translate(-670,-102) scale(1,1)"><g><path fill="none" stroke="none"/><text fill="#000000" stroke="none" font-family="Arial" font-size="13px" font-style="normal" font-weight="normal" text-decoration="none" x="685" y="154.5">-id: long</text></g></g><g transform="translate(-670,-102) scale(1,1)"><g><path fill="none" stroke="none"/><text fill="#000000" stroke="none" font-family="Arial" font-size="13px" font-style="normal" font-weight="normal" text-decoration="none" x="685" y="169.5">-cognome: String</text></g></g><g transform="translate(-670,-102) scale(1,1)"><g><path fill="none" stroke="none"/><text fill="#000000" stroke="none" font-family="Arial" font-size="13px" font-style="normal" font-weight="normal" text-decoration="none" x="685" y="184.5">-nome: String</text></g></g><g transform="translate(-670,-102) scale(1,1)"><g><path fill="none" stroke="none"/><text fill="#000000" stroke="none" font-family="Arial" font-size="13px" font-style="normal" font-weight="normal" text-decoration="none" x="685" y="199.5">-dataDiNascita: Date</text></g></g><g transform="translate(-670,-102) scale(1,1)"><g><path fill="none" stroke="none"/><text fill="#000000" stroke="none" font-family="Arial" font-size="13px" font-style="normal" font-weight="normal" text-decoration="none" x="685" y="214.5">-comuneNascita: String</text></g></g><g transform="translate(-670,-102) scale(1,1)"><g><path fill="none" stroke="none"/><text fill="#000000" stroke="none" font-family="Arial" font-size="13px" font-style="normal" font-weight="normal" text-decoration="none" x="685" y="229.5">-provinciaNascita: String</text></g></g><g transform="translate(-670,-102) scale(1,1)"><g><path fill="none" stroke="none"/><text fill="#000000" stroke="none" font-family="Arial" font-size="13px" font-style="normal" font-weight="normal" text-decoration="none" x="685" y="244.5">-nazionalita: String</text></g></g><g transform="translate(-670,-102) scale(1,1)"><g><path fill="none" stroke="none"/><text fill="#000000" stroke="none" font-family="Arial" font-size="13px" font-style="normal" font-weight="normal" text-decoration="none" x="685" y="259.5">-nTelefono: String</text></g></g><g transform="translate(-670,-102) scale(1,1)"><g><path fill="none" stroke="none"/><text fill="#000000" stroke="none" font-family="Arial" font-size="13px" font-style="normal" font-weight="normal" text-decoration="none" x="685" y="274.5">-diagnosi: String</text></g></g><g transform="translate(-670,-102) scale(1,1)"><g><path fill="none" stroke="none"/><text fill="#000000" stroke="none" font-family="Arial" font-size="13px" font-style="normal" font-weight="normal" text-decoration="none" x="685" y="289.5">-dataDiagnosi: Date</text></g></g><g transform="translate(-670,-102) scale(1,1)"><g><path fill="none" stroke="none"/><text fill="#000000" stroke="none" font-family="Arial" font-size="13px" font-style="normal" font-weight="normal" text-decoration="none" x="685" y="304.5">-pericoloso: Boolean</text></g></g><g transform="translate(-670,-102) scale(1,1)"><g><path fill="none" stroke="none"/><text fill="#000000" stroke="none" font-family="Arial" font-size="13px" font-style="normal" font-weight="normal" text-decoration="none" x="685" y="319.5">-autosufficiente: Boolean</text></g></g><g transform="translate(-670,-102) scale(1,1)"><g><path fill="none" stroke="none"/><text fill="#000000" stroke="none" font-family="Arial" font-size="13px" font-style="normal" font-weight="normal" text-decoration="none" x="685" y="342.5">+getId(): long</text></g></g><g transform="translate(-670,-102) scale(1,1)"><g><path fill="none" stroke="none"/><text fill="#000000" stroke="none" font-family="Arial" font-size="13px" font-style="normal" font-weight="normal" text-decoration="none" x="685" y="357.5">+getCognome(): String</text></g></g><g transform="translate(-670,-102) scale(1,1)"><g><path fill="none" stroke="none"/><text fill="#000000" stroke="none" font-family="Arial" font-size="13px" font-style="normal" font-weight="normal" text-decoration="none" x="685" y="372.5">+setCognome(value: String)</text></g></g><g transform="translate(-670,-102) scale(1,1)"><g><path fill="none" stroke="none"/><text fill="#000000" stroke="none" font-family="Arial" font-size="13px" font-style="normal" font-weight="normal" text-decoration="none" x="685" y="387.5">+getNome(): String</text></g></g><g transform="translate(-670,-102) scale(1,1)"><g><path fill="none" stroke="none"/><text fill="#000000" stroke="none" font-family="Arial" font-size="13px" font-style="normal" font-weight="normal" text-decoration="none" x="685" y="402.5">+setNome(value: String)</text></g></g><g transform="translate(-670,-102) scale(1,1)"><g><path fill="none" stroke="none"/><text fill="#000000" stroke="none" font-family="Arial" font-size="13px" font-style="normal" font-weight="normal" text-decoration="none" x="685" y="417.5">+getDataDiNascita(): Date</text></g></g><g transform="translate(-670,-102) scale(1,1)"><g><path fill="none" stroke="none"/><text fill="#000000" stroke="none" font-family="Arial" font-size="13px" font-style="normal" font-weight="normal" text-decoration="none" x="685" y="432.5">+setDataDiNascita(value: Date)</text></g></g><g transform="translate(-670,-102) scale(1,1)"><g><path fill="none" stroke="none"/><text fill="#000000" stroke="none" font-family="Arial" font-size="13px" font-style="normal" font-weight="normal" text-decoration="none" x="685" y="447.5">+getComuneNascita(): String</text></g></g><g transform="translate(-670,-102) scale(1,1)"><g><path fill="none" stroke="none"/><text fill="#000000" stroke="none" font-family="Arial" font-size="13px" font-style="normal" font-weight="normal" text-decoration="none" x="685" y="462.5">+setComuneNascita(value: String)</text></g></g><g transform="translate(-670,-102) scale(1,1)"><g><path fill="none" stroke="none"/><text fill="#000000" stroke="none" font-family="Arial" font-size="13px" font-style="normal" font-weight="normal" text-decoration="none" x="685" y="477.5">+getProvinciaNascita(): String</text></g></g><g transform="translate(-670,-102) scale(1,1)"><g><path fill="none" stroke="none"/><text fill="#000000" stroke="none" font-family="Arial" font-size="13px" font-style="normal" font-weight="normal" text-decoration="none" x="685" y="492.5">+setProvinciaNascita(value: String)</text></g></g><g transform="translate(-670,-102) scale(1,1)"><g><path fill="none" stroke="none"/><text fill="#000000" stroke="none" font-family="Arial" font-size="13px" font-style="normal" font-weight="normal" text-decoration="none" x="685" y="507.5">+getNazionalita(): String</text></g></g><g transform="translate(-670,-102) scale(1,1)"><g><path fill="none" stroke="none"/><text fill="#000000" stroke="none" font-family="Arial" font-size="13px" font-style="normal" font-weight="normal" text-decoration="none" x="685" y="522.5">+setNazionalita(value: String)</text></g></g><g transform="translate(-670,-102) scale(1,1)"><g><path fill="none" stroke="none"/><text fill="#000000" stroke="none" font-family="Arial" font-size="13px" font-style="normal" font-weight="normal" text-decoration="none" x="685" y="537.5">+getNTelefono(): String</text></g></g><g transform="translate(-670,-102) scale(1,1)"><g><path fill="none" stroke="none"/><text fill="#000000" stroke="none" font-family="Arial" font-size="13px" font-style="normal" font-weight="normal" text-decoration="none" x="685" y="552.5">+setNTelefono(value: String)</text></g></g><g transform="translate(-670,-102) scale(1,1)"><g><path fill="none" stroke="none"/><text fill="#000000" stroke="none" font-family="Arial" font-size="13px" font-style="normal" font-weight="normal" text-decoration="none" x="685" y="567.5">+getDiagnosi(): String</text></g></g><g transform="translate(-670,-102) scale(1,1)"><g><path fill="none" stroke="none"/><text fill="#000000" stroke="none" font-family="Arial" font-size="13px" font-style="normal" font-weight="normal" text-decoration="none" x="685" y="582.5">+setDiagnosi(value: String)</text></g></g><g transform="translate(-670,-102) scale(1,1)"><g><path fill="none" stroke="none"/><text fill="#000000" stroke="none" font-family="Arial" font-size="13px" font-style="normal" font-weight="normal" text-decoration="none" x="685" y="597.5">+getDataDiagnosi(): Date</text></g></g><g transform="translate(-670,-102) scale(1,1)"><g><path fill="none" stroke="none"/><text fill="#000000" stroke="none" font-family="Arial" font-size="13px" font-style="normal" font-weight="normal" text-decoration="none" x="685" y="612.5">+setDataDiagnosi(value: Date)</text></g></g><g transform="translate(-670,-102) scale(1,1)"><g><path fill="none" stroke="none"/><text fill="#000000" stroke="none" font-family="Arial" font-size="13px" font-style="normal" font-weight="normal" text-decoration="none" x="685" y="627.5">+isPericoloso(): Boolean</text></g></g><g transform="translate(-670,-102) scale(1,1)"><g><path fill="none" stroke="none"/><text fill="#000000" stroke="none" font-family="Arial" font-size="13px" font-style="normal" font-weight="normal" text-decoration="none" x="685" y="642.5">+setPericoloso(value: Boolean)</text></g></g><g transform="translate(-670,-102) scale(1,1)"><g><path fill="none" stroke="none"/><text fill="#000000" stroke="none" font-family="Arial" font-size="13px" font-style="normal" font-weight="normal" text-decoration="none" x="685" y="657.5">+isAutosufficiente(): Boolean</text></g></g><g transform="translate(-670,-102) scale(1,1)"><g><path fill="none" stroke="none"/><text fill="#000000" stroke="none" font-family="Arial" font-size="13px" font-style="normal" font-weight="normal" text-decoration="none" x="685" y="672.5">+setAutosufficiente(value: Boolean)</text></g></g><g transform="translate(-670,-102) scale(1,1)"><g><path fill="none" stroke="none"/><text fill="#000000" stroke="none" font-family="Arial" font-size="13px" font-style="normal" font-weight="normal" text-decoration="none" x="685" y="687.5">#Paziente()</text></g></g><g transform="translate(-670,-102) scale(1,1)"><g><path fill="none" stroke="none"/><text fill="#000000" stroke="none" font-family="Arial" font-size="13px" font-style="normal" font-weight="normal" text-decoration="none" x="685" y="702.5">+Paziente(cognome: String, nome: String, dataDiNascita: Date,</text><text fill="#000000" stroke="none" font-family="Arial" font-size="13px" font-style="normal" font-weight="normal" text-decoration="none" x="685" y="715.5">comuneNascita: String, provinciaNascita: String, nazionalita: String,</text><text fill="#000000" stroke="none" font-family="Arial" font-size="13px" font-style="normal" font-weight="normal" text-decoration="none" x="685" y="728.5">nTelefono: String, pericoloso: Boolean, autosufficiente: Boolean)</text></g></g><g transform="translate(-670,-102) scale(1,1)"><rect fill="#C0C0C0" stroke="none" x="1343" y="175" width="360.79345703125" height="448" opacity="0.2"/></g><g transform="translate(-670,-102) scale(1,1)"><rect fill="#ffffff" stroke="none" x="1336" y="168" width="360.79345703125" height="448"/></g><g transform="translate(-670,-102) scale(1,1)"><path fill="none" stroke="#000000" d="M 1336 168 L 1696.79345703125 168 L 1696.79345703125 616 L 1336 616 L 1336 168 Z Z" stroke-miterlimit="10"/></g><g transform="translate(-670,-102) scale(1,1)"><path fill="none" stroke="#000000" d="M 1336 193 L 1696.79345703125 193" stroke-miterlimit="10"/></g><g transform="translate(-670,-102) scale(1,1)"><path fill="none" stroke="#000000" d="M 1336 246 L 1696.79345703125 246" stroke-miterlimit="10"/></g><g transform="translate(-670,-102) scale(1,1)"><g><path fill="none" stroke="none"/><text fill="#000000" stroke="none" font-family="Arial" font-size="13px" font-style="normal" font-weight="bold" text-decoration="none" x="1500.61962890625" y="187.5">Visita</text></g></g><g transform="translate(-670,-102) scale(1,1)"><g><path fill="none" stroke="none"/><text fill="#000000" stroke="none" font-family="Arial" font-size="13px" font-style="normal" font-weight="normal" text-decoration="none" x="1341" y="210.5">-idVisita: long</text></g></g><g transform="translate(-670,-102) scale(1,1)"><g><path fill="none" stroke="none"/><text fill="#000000" stroke="none" font-family="Arial" font-size="13px" font-style="normal" font-weight="normal" text-decoration="none" x="1341" y="225.5">-dataVisita: Date</text></g></g><g transform="translate(-670,-102) scale(1,1)"><g><path fill="none" stroke="none"/><text fill="#000000" stroke="none" font-family="Arial" font-size="13px" font-style="normal" font-weight="normal" text-decoration="none" x="1341" y="240.5">-osservazioni: String</text></g></g><g transform="translate(-670,-102) scale(1,1)"><g><path fill="none" stroke="none"/><text fill="#000000" stroke="none" font-family="Arial" font-size="13px" font-style="normal" font-weight="normal" text-decoration="none" x="1341" y="263.5">+getIdVisita(): long</text></g></g><g transform="translate(-670,-102) scale(1,1)"><g><path fill="none" stroke="none"/><text fill="#000000" stroke="none" font-family="Arial" font-size="13px" font-style="normal" font-weight="normal" text-decoration="none" x="1341" y="278.5">+getMedico(): Medico</text></g></g><g transform="translate(-670,-102) scale(1,1)"><g><path fill="none" stroke="none"/><text fill="#000000" stroke="none" font-family="Arial" font-size="13px" font-style="normal" font-weight="normal" text-decoration="none" x="1341" y="293.5">+setMedico(medico: Medico)</text></g></g><g transform="translate(-670,-102) scale(1,1)"><g><path fill="none" stroke="none"/><text fill="#000000" stroke="none" font-family="Arial" font-size="13px" font-style="normal" font-weight="normal" text-decoration="none" x="1341" y="308.5">+getPaziente(): Paziente</text></g></g><g transform="translate(-670,-102) scale(1,1)"><g><path fill="none" stroke="none"/><text fill="#000000" stroke="none" font-family="Arial" font-size="13px" font-style="normal" font-weight="normal" text-decoration="none" x="1341" y="323.5">+setIdPaziente(paziente: Paziente)</text></g></g><g transform="translate(-670,-102) scale(1,1)"><g><path fill="none" stroke="none"/><text fill="#000000" stroke="none" font-family="Arial" font-size="13px" font-style="normal" font-weight="normal" text-decoration="none" x="1341" y="338.5">+getDataVisita(): Date</text></g></g><g transform="translate(-670,-102) scale(1,1)"><g><path fill="none" stroke="none"/><text fill="#000000" stroke="none" font-family="Arial" font-size="13px" font-style="normal" font-weight="normal" text-decoration="none" x="1341" y="353.5">+setDataVisita(value: Date)</text></g></g><g transform="translate(-670,-102) scale(1,1)"><g><path fill="none" stroke="none"/><text fill="#000000" stroke="none" font-family="Arial" font-size="13px" font-style="normal" font-weight="normal" text-decoration="none" x="1341" y="368.5">+getOsservazioni(): String</text></g></g><g transform="translate(-670,-102) scale(1,1)"><g><path fill="none" stroke="none"/><text fill="#000000" stroke="none" font-family="Arial" font-size="13px" font-style="normal" font-weight="normal" text-decoration="none" x="1341" y="383.5">+setOsservazioni(osservazione: String)</text></g></g><g transform="translate(-670,-102) scale(1,1)"><g><path fill="none" stroke="none"/><text fill="#000000" stroke="none" font-family="Arial" font-size="13px" font-style="normal" font-weight="normal" text-decoration="none" x="1341" y="398.5">#Visita()</text></g></g><g transform="translate(-670,-102) scale(1,1)"><g><path fill="none" stroke="none"/><text fill="#000000" stroke="none" font-family="Arial" font-size="13px" font-style="normal" font-weight="normal" text-decoration="none" x="1341" y="413.5">+Visita(medico: Medico, paziente: Paziente, dataVisita: Date)</text></g></g><g transform="translate(-670,-102) scale(1,1)"><path fill="none" stroke="#000000" d="M 1121 411 L 1335 401" stroke-miterlimit="10"/></g><g transform="translate(-670,-102) scale(1,1)"><g><path fill="none" stroke="none"/><text fill="#000000" stroke="none" font-family="Arial" font-size="13px" font-style="normal" font-weight="normal" text-decoration="none" x="1139.5" y="428.5">1</text></g></g><g transform="translate(-670,-102) scale(1,1)"><g><path fill="none" stroke="none"/><text fill="#000000" stroke="none" font-family="Arial" font-size="13px" font-style="normal" font-weight="normal" text-decoration="none" x="1303.5" y="420.5">0..*</text></g></g><g transform="translate(-670,-102) scale(1,1)"><rect fill="#C0C0C0" stroke="none" x="1783" y="119" width="387.955078125" height="583" opacity="0.2"/></g><g transform="translate(-670,-102) scale(1,1)"><rect fill="#ffffff" stroke="none" x="1776" y="112" width="387.955078125" height="583"/></g><g transform="translate(-670,-102) scale(1,1)"><path fill="none" stroke="#000000" d="M 1776 112 L 2163.955078125 112 L 2163.955078125 695 L 1776 695 L 1776 112 Z Z" stroke-miterlimit="10"/></g><g transform="translate(-670,-102) scale(1,1)"><path fill="none" stroke="#000000" d="M 1776 137 L 2163.955078125 137" stroke-miterlimit="10"/></g><g transform="translate(-670,-102) scale(1,1)"><path fill="none" stroke="#000000" d="M 1776 205 L 2163.955078125 205" stroke-miterlimit="10"/></g><g transform="translate(-670,-102) scale(1,1)"><g><path fill="none" stroke="none"/><text fill="#000000" stroke="none" font-family="Arial" font-size="13px" font-style="normal" font-weight="bold" text-decoration="none" x="1949.02392578125" y="131.5">Medico</text></g></g><g transform="translate(-670,-102) scale(1,1)"><g><path fill="none" stroke="none"/><text fill="#000000" stroke="none" font-family="Arial" font-size="13px" font-style="normal" font-weight="normal" text-decoration="none" x="1781" y="154.5">-id: long</text></g></g><g transform="translate(-670,-102) scale(1,1)"><g><path fill="none" stroke="none"/><text fill="#000000" stroke="none" font-family="Arial" font-size="13px" font-style="normal" font-weight="normal" text-decoration="none" x="1781" y="169.5">-cognome: String</text></g></g><g transform="translate(-670,-102) scale(1,1)"><g><path fill="none" stroke="none"/><text fill="#000000" stroke="none" font-family="Arial" font-size="13px" font-style="normal" font-weight="normal" text-decoration="none" x="1781" y="184.5">-nome: String</text></g></g><g transform="translate(-670,-102) scale(1,1)"><g><path fill="none" stroke="none"/><text fill="#000000" stroke="none" font-family="Arial" font-size="13px" font-style="normal" font-weight="normal" text-decoration="none" x="1781" y="199.5">-iscrOrdineMedici: String</text></g></g><g transform="translate(-670,-102) scale(1,1)"><g><path fill="none" stroke="none"/><text fill="#000000" stroke="none" font-family="Arial" font-size="13px" font-style="normal" font-weight="normal" text-decoration="none" x="1781" y="222.5">+getId(): long</text></g></g><g transform="translate(-670,-102) scale(1,1)"><g><path fill="none" stroke="none"/><text fill="#000000" stroke="none" font-family="Arial" font-size="13px" font-style="normal" font-weight="normal" text-decoration="none" x="1781" y="237.5">+getCognome(): String</text></g></g><g transform="translate(-670,-102) scale(1,1)"><g><path fill="none" stroke="none"/><text fill="#000000" stroke="none" font-family="Arial" font-size="13px" font-style="normal" font-weight="normal" text-decoration="none" x="1781" y="252.5">+setCognome(value: String)</text></g></g><g transform="translate(-670,-102) scale(1,1)"><g><path fill="none" stroke="none"/><text fill="#000000" stroke="none" font-family="Arial" font-size="13px" font-style="normal" font-weight="normal" text-decoration="none" x="1781" y="267.5">+getNome(): String</text></g></g><g transform="translate(-670,-102) scale(1,1)"><g><path fill="none" stroke="none"/><text fill="#000000" stroke="none" font-family="Arial" font-size="13px" font-style="normal" font-weight="normal" text-decoration="none" x="1781" y="282.5">+setNome(value: String)</text></g></g><g transform="translate(-670,-102) scale(1,1)"><g><path fill="none" stroke="none"/><text fill="#000000" stroke="none" font-family="Arial" font-size="13px" font-style="normal" font-weight="normal" text-decoration="none" x="1781" y="297.5">+getIscrOrdineMedici(): String</text></g></g><g transform="translate(-670,-102) scale(1,1)"><g><path fill="none" stroke="none"/><text fill="#000000" stroke="none" font-family="Arial" font-size="13px" font-style="normal" font-weight="normal" text-decoration="none" x="1781" y="312.5">+setIscrOrdineMedici(value: String)</text></g></g><g transform="translate(-670,-102) scale(1,1)"><g><path fill="none" stroke="none"/><text fill="#000000" stroke="none" font-family="Arial" font-size="13px" font-style="normal" font-weight="normal" text-decoration="none" x="1781" y="327.5">#Medico()</text></g></g><g transform="translate(-670,-102) scale(1,1)"><g><path fill="none" stroke="none"/><text fill="#000000" stroke="none" font-family="Arial" font-size="13px" font-style="normal" font-weight="normal" text-decoration="none" x="1781" y="342.5">+Medico(nome: String, cognome: String, iscrOrdineMedici: String)</text></g></g><g transform="translate(-670,-102) scale(1,1)"><path fill="none" stroke="#000000" d="M 1698 396 L 1775 398" stroke-miterlimit="10"/></g><g transform="translate(-670,-102) scale(1,1)"><g><path fill="none" stroke="none"/><text fill="#000000" stroke="none" font-family="Arial" font-size="13px" font-style="normal" font-weight="normal" text-decoration="none" x="1709.5" y="415.5">0..*</text></g></g><g transform="translate(-670,-102) scale(1,1)"><g><path fill="none" stroke="none"/><text fill="#000000" stroke="none" font-family="Arial" font-size="13px" font-style="normal" font-weight="normal" text-decoration="none" x="1749.5" y="415.5">1</text></g></g><g transform="translate(-670,-102) scale(1,1)"><rect fill="#C0C0C0" stroke="none" x="1295" y="703" width="468.14501953125" height="327" opacity="0.2"/></g><g transform="translate(-670,-102) scale(1,1)"><rect fill="#ffffff" stroke="none" x="1288" y="696" width="468.14501953125" height="327"/></g><g transform="translate(-670,-102) scale(1,1)"><path fill="none" stroke="#000000" d="M 1288 696 L 1756.14501953125 696 L 1756.14501953125 1023 L 1288 1023 L 1288 696 Z Z" stroke-miterlimit="10"/></g><g transform="translate(-670,-102) scale(1,1)"><path fill="none" stroke="#000000" d="M 1288 721 L 1756.14501953125 721" stroke-miterlimit="10"/></g><g transform="translate(-670,-102) scale(1,1)"><path fill="none" stroke="#000000" d="M 1288 774 L 1756.14501953125 774" stroke-miterlimit="10"/></g><g transform="translate(-670,-102) scale(1,1)"><g><path fill="none" stroke="none"/><text fill="#000000" stroke="none" font-family="Arial" font-size="13px" font-style="normal" font-weight="bold" text-decoration="none" x="1486.309814453125" y="715.5">Prescrizione</text></g></g><g transform="translate(-670,-102) scale(1,1)"><g><path fill="none" stroke="none"/><text fill="#000000" stroke="none" font-family="Arial" font-size="13px" font-style="normal" font-weight="normal" text-decoration="none" x="1293" y="738.5">-idPrescrizione: long</text></g></g><g transform="translate(-670,-102) scale(1,1)"><g><path fill="none" stroke="none"/><text fill="#000000" stroke="none" font-family="Arial" font-size="13px" font-style="normal" font-weight="normal" text-decoration="none" x="1293" y="753.5">-dataPrescrizione: Date</text></g></g><g transform="translate(-670,-102) scale(1,1)"><g><path fill="none" stroke="none"/><text fill="#000000" stroke="none" font-family="Arial" font-size="13px" font-style="normal" font-weight="normal" text-decoration="none" x="1293" y="768.5">-dosaggio: String</text></g></g><g transform="translate(-670,-102) scale(1,1)"><g><path fill="none" stroke="none"/><text fill="#000000" stroke="none" font-family="Arial" font-size="13px" font-style="normal" font-weight="normal" text-decoration="none" x="1293" y="791.5">+getIdPrescrizione(): long</text></g></g><g transform="translate(-670,-102) scale(1,1)"><g><path fill="none" stroke="none"/><text fill="#000000" stroke="none" font-family="Arial" font-size="13px" font-style="normal" font-weight="normal" text-decoration="none" x="1293" y="806.5">+getDataPrescrizione(): Date</text></g></g><g transform="translate(-670,-102) scale(1,1)"><g><path fill="none" stroke="none"/><text fill="#000000" stroke="none" font-family="Arial" font-size="13px" font-style="normal" font-weight="normal" text-decoration="none" x="1293" y="821.5">+setDataPrescrizione(value: Date)</text></g></g><g transform="translate(-670,-102) scale(1,1)"><g><path fill="none" stroke="none"/><text fill="#000000" stroke="none" font-family="Arial" font-size="13px" font-style="normal" font-weight="normal" text-decoration="none" x="1293" y="836.5">+getDosaggio(): String</text></g></g><g transform="translate(-670,-102) scale(1,1)"><g><path fill="none" stroke="none"/><text fill="#000000" stroke="none" font-family="Arial" font-size="13px" font-style="normal" font-weight="normal" text-decoration="none" x="1293" y="851.5">+setDosaggio(value: String)</text></g></g><g transform="translate(-670,-102) scale(1,1)"><g><path fill="none" stroke="none"/><text fill="#000000" stroke="none" font-family="Arial" font-size="13px" font-style="normal" font-weight="normal" text-decoration="none" x="1293" y="866.5">+Prescrizione(medicoPrescrittore: Medico, farmaco: Farmaco, dosaggio: String)</text></g></g><g transform="translate(-670,-102) scale(1,1)"><g><path fill="none" stroke="none"/><text fill="#000000" stroke="none" font-family="Arial" font-size="13px" font-style="normal" font-weight="normal" text-decoration="none" x="1293" y="881.5">#Prescrizione()</text></g></g><g transform="translate(-670,-102) scale(1,1)"><g><path fill="none" stroke="none"/><text fill="#000000" stroke="none" font-family="Arial" font-size="13px" font-style="normal" font-weight="normal" text-decoration="none" x="1293" y="896.5">+getFarmaco()</text></g></g><g transform="translate(-670,-102) scale(1,1)"><g><path fill="none" stroke="none"/><text fill="#000000" stroke="none" font-family="Arial" font-size="13px" font-style="normal" font-weight="normal" text-decoration="none" x="1293" y="911.5">+setFarmaco(farmaco: Farmaco)</text></g></g><g transform="translate(-670,-102) scale(1,1)"><g><path fill="none" stroke="none"/><text fill="#000000" stroke="none" font-family="Arial" font-size="13px" font-style="normal" font-weight="normal" text-decoration="none" x="1293" y="926.5">+getMedicoPrescrittore()</text></g></g><g transform="translate(-670,-102) scale(1,1)"><g><path fill="none" stroke="none"/><text fill="#000000" stroke="none" font-family="Arial" font-size="13px" font-style="normal" font-weight="normal" text-decoration="none" x="1293" y="941.5">+setMedicoPrescrittore(medico: Medico)</text></g></g><g transform="translate(-670,-102) scale(1,1)"><g><path fill="none" stroke="none"/><text fill="#000000" stroke="none" font-family="Arial" font-size="13px" font-style="normal" font-weight="normal" text-decoration="none" x="1293" y="956.5">+getPaziente()</text></g></g><g transform="translate(-670,-102) scale(1,1)"><g><path fill="none" stroke="none"/><text fill="#000000" stroke="none" font-family="Arial" font-size="13px" font-style="normal" font-weight="normal" text-decoration="none" x="1293" y="971.5">+setPaziente(paziente: Paziente)</text></g></g><g transform="translate(-670,-102) scale(1,1)"><path fill="none" stroke="#000000" d="M 1289 695 L 1121 577" stroke-miterlimit="10"/></g><g transform="translate(-670,-102) scale(1,1)"><g><path fill="none" stroke="none"/><text fill="#000000" stroke="none" font-family="Arial" font-size="13px" font-style="normal" font-weight="normal" text-decoration="none" x="1268.5" y="678.5">0..*</text></g></g><g transform="translate(-670,-102) scale(1,1)"><g><path fill="none" stroke="none"/><text fill="#000000" stroke="none" font-family="Arial" font-size="13px" font-style="normal" font-weight="normal" text-decoration="none" x="1141.5" y="585.5">1</text></g></g><g transform="translate(-670,-102) scale(1,1)"><path fill="none" stroke="#000000" d="M 1683 695 L 1775 601" stroke-miterlimit="10"/></g><g transform="translate(-670,-102) scale(1,1)"><g><path fill="none" stroke="none"/><text fill="#000000" stroke="none" font-family="Arial" font-size="13px" font-style="normal" font-weight="normal" text-decoration="none" x="1697.5" y="694.5">0..*</text></g></g><g transform="translate(-670,-102) scale(1,1)"><g><path fill="none" stroke="none"/><text fill="#000000" stroke="none" font-family="Arial" font-size="13px" font-style="normal" font-weight="normal" text-decoration="none" x="1764.5" y="631.5">1</text></g></g><g transform="translate(-670,-102) scale(1,1)"><rect fill="#C0C0C0" stroke="none" x="1351" y="1111" width="356.14697265625" height="200" opacity="0.2"/></g><g transform="translate(-670,-102) scale(1,1)"><rect fill="#ffffff" stroke="none" x="1344" y="1104" width="356.14697265625" height="200"/></g><g transform="translate(-670,-102) scale(1,1)"><path fill="none" stroke="#000000" d="M 1344 1104 L 1700.14697265625 1104 L 1700.14697265625 1304 L 1344 1304 L 1344 1104 Z Z" stroke-miterlimit="10"/></g><g transform="translate(-670,-102) scale(1,1)"><path fill="none" stroke="#000000" d="M 1344 1129 L 1700.14697265625 1129" stroke-miterlimit="10"/></g><g transform="translate(-670,-102) scale(1,1)"><path fill="none" stroke="#000000" d="M 1344 1182 L 1700.14697265625 1182" stroke-miterlimit="10"/></g><g transform="translate(-670,-102) scale(1,1)"><g><path fill="none" stroke="none"/><text fill="#000000" stroke="none" font-family="Arial" font-size="13px" font-style="normal" font-weight="bold" text-decoration="none" x="1496.428955078125" y="1123.5">Farmaco</text></g></g><g transform="translate(-670,-102) scale(1,1)"><g><path fill="none" stroke="none"/><text fill="#000000" stroke="none" font-family="Arial" font-size="13px" font-style="normal" font-weight="normal" text-decoration="none" x="1349" y="1146.5">-id: long</text></g></g><g transform="translate(-670,-102) scale(1,1)"><g><path fill="none" stroke="none"/><text fill="#000000" stroke="none" font-family="Arial" font-size="13px" font-style="normal" font-weight="normal" text-decoration="none" x="1349" y="1161.5">-nomeCommerciale</text></g></g><g transform="translate(-670,-102) scale(1,1)"><g><path fill="none" stroke="none"/><text fill="#000000" stroke="none" font-family="Arial" font-size="13px" font-style="normal" font-weight="normal" text-decoration="none" x="1349" y="1176.5">-principioAttivo: String</text></g></g><g transform="translate(-670,-102) scale(1,1)"><g><path fill="none" stroke="none"/><text fill="#000000" stroke="none" font-family="Arial" font-size="13px" font-style="normal" font-weight="normal" text-decoration="none" x="1349" y="1199.5">+getId(): long</text></g></g><g transform="translate(-670,-102) scale(1,1)"><g><path fill="none" stroke="none"/><text fill="#000000" stroke="none" font-family="Arial" font-size="13px" font-style="normal" font-weight="normal" text-decoration="none" x="1349" y="1214.5">+getNomeCommerciale(): null</text></g></g><g transform="translate(-670,-102) scale(1,1)"><g><path fill="none" stroke="none"/><text fill="#000000" stroke="none" font-family="Arial" font-size="13px" font-style="normal" font-weight="normal" text-decoration="none" x="1349" y="1229.5">+setNomeCommerciale(value)</text></g></g><g transform="translate(-670,-102) scale(1,1)"><g><path fill="none" stroke="none"/><text fill="#000000" stroke="none" font-family="Arial" font-size="13px" font-style="normal" font-weight="normal" text-decoration="none" x="1349" y="1244.5">+getPrincipioAttivo(): String</text></g></g><g transform="translate(-670,-102) scale(1,1)"><g><path fill="none" stroke="none"/><text fill="#000000" stroke="none" font-family="Arial" font-size="13px" font-style="normal" font-weight="normal" text-decoration="none" x="1349" y="1259.5">+setPrincipioAttivo(value: String)</text></g></g><g transform="translate(-670,-102) scale(1,1)"><g><path fill="none" stroke="none"/><text fill="#000000" stroke="none" font-family="Arial" font-size="13px" font-style="normal" font-weight="normal" text-decoration="none" x="1349" y="1274.5">+Farmaco(nomeCommerciale: String, principioAttivo: String)</text></g></g><g transform="translate(-670,-102) scale(1,1)"><g><path fill="none" stroke="none"/><text fill="#000000" stroke="none" font-family="Arial" font-size="13px" font-style="normal" font-weight="normal" text-decoration="none" x="1349" y="1289.5">#Farmaco()</text></g></g><g transform="translate(-670,-102) scale(1,1)"><path fill="none" stroke="#000000" d="M 1522 1024 L 1522 1103" stroke-miterlimit="10"/></g><g transform="translate(-670,-102) scale(1,1)"><g><path fill="none" stroke="none"/><text fill="#000000" stroke="none" font-family="Arial" font-size="13px" font-style="normal" font-weight="normal" text-decoration="none" x="1499.5" y="1051.5">0..*</text></g></g><g transform="translate(-670,-102) scale(1,1)"><g><path fill="none" stroke="none"/><text fill="#000000" stroke="none" font-family="Arial" font-size="13px" font-style="normal" font-weight="normal" text-decoration="none" x="1505.5" y="1087.5">1</text></g></g></g></svg>