<svg version="1.1" xmlns="http://www.w3.org/2000/svg" xmlns:xlink="http://www.w3.org/1999/xlink" width="1017" height="638"><defs/><g><g transform="translate(-94,-150) scale(1,1)"><path fill="#ffffff" stroke="none" d="M 122.21208469460228 177.68 C 122.21208469460228 172.886167936 126.09792701954774 169 130.891357421875 169 C 135.68478782420226 169 139.57063014914772 172.886167936 139.57063014914772 177.68 C 139.57063014914772 182.47383206400002 135.68478782420226 186.36 130.891357421875 186.36 C 126.09792701954774 186.36 122.21208469460228 182.47383206400002 122.21208469460228 177.68 Z"/></g><g transform="translate(-94,-150) scale(1,1)"><path fill="none" stroke="#000000" d="M 122.21208469460228 177.68 C 122.21208469460228 172.886167936 126.09792701954774 169 130.891357421875 169 C 135.68478782420226 169 139.57063014914772 172.886167936 139.57063014914772 177.68 C 139.57063014914772 182.47383206400002 135.68478782420226 186.36 130.891357421875 186.36 C 126.09792701954774 186.36 122.21208469460228 182.47383206400002 122.21208469460228 177.68 Z" stroke-miterlimit="10"/></g><g transform="translate(-94,-150) scale(1,1)"><path fill="none" stroke="#000000" d="M 130.891357421875 186.36 L 130.891357421875 203.64" stroke-miterlimit="10"/></g><g transform="translate(-94,-150) scale(1,1)"><path fill="none" stroke="#000000" d="M 121.70153924005683 192.84 L 140.08117560369317 192.84" stroke-miterlimit="10"/></g><g transform="translate(-94,-150) scale(1,1)"><path fill="none" stroke="#000000" d="M 130.891357421875 203.64 L 118.12772105823865 221" stroke-miterlimit="10"/></g><g transform="translate(-94,-150) scale(1,1)"><path fill="none" stroke="#000000" d="M 130.891357421875 203.64 L 143.65499378551135 221" stroke-miterlimit="10"/></g><g transform="translate(-94,-150) scale(1,1)"><g><path fill="none" stroke="none"/><text fill="#000000" stroke="none" font-family="Arial" font-size="13px" font-style="normal" font-weight="bold" text-decoration="none" x="109.937744140625" y="241.5">Medico</text></g></g><g transform="translate(-94,-150) scale(1,1)"><path fill="#C0C0C0" stroke="none" d="M 359 184 C 359 174.6111584 399.7420832 167 450 167 C 500.2579168 167 541 174.6111584 541 184 C 541 193.3888416 500.2579168 201 450 201 C 399.7420832 201 359 193.3888416 359 184 Z" opacity="0.2"/></g><g transform="translate(-94,-150) scale(1,1)"><path fill="#ffffff" stroke="none" d="M 352 177 C 352 167.6111584 392.7420832 160 443 160 C 493.2579168 160 534 167.6111584 534 177 C 534 186.3888416 493.2579168 194 443 194 C 392.7420832 194 352 186.3888416 352 177 Z"/></g><g transform="translate(-94,-150) scale(1,1)"><path fill="none" stroke="#000000" d="M 352 177 C 352 167.6111584 392.7420832 160 443 160 C 493.2579168 160 534 167.6111584 534 177 C 534 186.3888416 493.2579168 194 443 194 C 392.7420832 194 352 186.3888416 352 177 Z" stroke-miterlimit="10"/></g><g transform="translate(-94,-150) scale(1,1)"><g><path fill="none" stroke="none"/><text fill="#000000" stroke="none" font-family="Arial" font-size="13px" font-style="normal" font-weight="bold" text-decoration="none" x="427.095947265625" y="184">Login</text></g></g><g transform="translate(-94,-150) scale(1,1)"><path fill="#C0C0C0" stroke="none" d="M 815 208 C 815 198.6111584 875.441552 191 950 191 C 1024.558448 191 1085 198.6111584 1085 208 C 1085 217.3888416 1024.558448 225 950 225 C 875.441552 225 815 217.3888416 815 208 Z" opacity="0.2"/></g><g transform="translate(-94,-150) scale(1,1)"><path fill="#ffffff" stroke="none" d="M 808 201 C 808 191.6111584 868.441552 184 943 184 C 1017.558448 184 1078 191.6111584 1078 201 C 1078 210.3888416 1017.558448 218 943 218 C 868.441552 218 808 210.3888416 808 201 Z"/></g><g transform="translate(-94,-150) scale(1,1)"><path fill="none" stroke="#000000" d="M 808 201 C 808 191.6111584 868.441552 184 943 184 C 1017.558448 184 1078 191.6111584 1078 201 C 1078 210.3888416 1017.558448 218 943 218 C 868.441552 218 808 210.3888416 808 201 Z" stroke-miterlimit="10"/></g><g transform="translate(-94,-150) scale(1,1)"><g><path fill="none" stroke="none"/><text fill="#000000" stroke="none" font-family="Arial" font-size="13px" font-style="normal" font-weight="bold" text-decoration="none" x="858.56982421875" y="208">Visualizzare gli appuntamenti</text></g></g><g transform="translate(-94,-150) scale(1,1)"><path fill="none" stroke="#000000" d="M 159 204 L 351 186" stroke-miterlimit="10"/></g><g transform="translate(-94,-150) scale(1,1)"><path fill="#C0C0C0" stroke="none" d="M 447 328 C 447 318.6111584 500.0542512 311 565.5 311 C 630.9457488 311 684 318.6111584 684 328 C 684 337.3888416 630.9457488 345 565.5 345 C 500.0542512 345 447 337.3888416 447 328 Z" opacity="0.2"/></g><g transform="translate(-94,-150) scale(1,1)"><path fill="#ffffff" stroke="none" d="M 440 321 C 440 311.6111584 493.0542512 304 558.5 304 C 623.9457488 304 677 311.6111584 677 321 C 677 330.3888416 623.9457488 338 558.5 338 C 493.0542512 338 440 330.3888416 440 321 Z"/></g><g transform="translate(-94,-150) scale(1,1)"><path fill="none" stroke="#000000" d="M 440 321 C 440 311.6111584 493.0542512 304 558.5 304 C 623.9457488 304 677 311.6111584 677 321 C 677 330.3888416 623.9457488 338 558.5 338 C 493.0542512 338 440 330.3888416 440 321 Z" stroke-miterlimit="10"/></g><g transform="translate(-94,-150) scale(1,1)"><g><path fill="none" stroke="none"/><text fill="#000000" stroke="none" font-family="Arial" font-size="13px" font-style="normal" font-weight="bold" text-decoration="none" x="484.184814453125" y="328">Visualizzare la dashboard</text></g></g><g transform="translate(-94,-150) scale(1,1)"><path fill="none" stroke="#000000" d="M 544 303 L 457 195" stroke-miterlimit="10" stroke-dasharray="3"/></g><g transform="translate(-94,-150) scale(1,1)"><path fill="none" stroke="#000000" d="M 466.65352452983626 200.27346794356902 L 457 195 L 460.09716771413036 205.5549776006654" stroke-miterlimit="10"/></g><g transform="translate(-94,-150) scale(1,1)"><g><path fill="none" stroke="none"/><text fill="#000000" stroke="none" font-family="Arial" font-size="13px" font-style="normal" font-weight="normal" text-decoration="none" x="448.5" y="273.5">«include»</text></g></g><g transform="translate(-94,-150) scale(1,1)"><path fill="none" stroke="#000000" d="M 885 219 L 616 303" stroke-miterlimit="10" stroke-dasharray="3"/></g><g transform="translate(-94,-150) scale(1,1)"><path fill="none" stroke="#000000" d="M 624.4459678099711 295.95261553816357 L 616 303 L 626.955454454707 303.98894776952056" stroke-miterlimit="10"/></g><g transform="translate(-94,-150) scale(1,1)"><g><path fill="none" stroke="none"/><text fill="#000000" stroke="none" font-family="Arial" font-size="13px" font-style="normal" font-weight="normal" text-decoration="none" x="730.5" y="295.5">«include»</text></g></g><g transform="translate(-94,-150) scale(1,1)"><path fill="#C0C0C0" stroke="none" d="M 671 512 C 671 502.6111584 723.1588208000001 495 787.5 495 C 851.8411791999999 495 904 502.6111584 904 512 C 904 521.3888416 851.8411791999999 529 787.5 529 C 723.1588208000001 529 671 521.3888416 671 512 Z" opacity="0.2"/></g><g transform="translate(-94,-150) scale(1,1)"><path fill="#ffffff" stroke="none" d="M 664 505 C 664 495.6111584 716.1588208000001 488 780.5 488 C 844.8411791999999 488 897 495.6111584 897 505 C 897 514.3888416 844.8411791999999 522 780.5 522 C 716.1588208000001 522 664 514.3888416 664 505 Z"/></g><g transform="translate(-94,-150) scale(1,1)"><path fill="none" stroke="#000000" d="M 664 505 C 664 495.6111584 716.1588208000001 488 780.5 488 C 844.8411791999999 488 897 495.6111584 897 505 C 897 514.3888416 844.8411791999999 522 780.5 522 C 716.1588208000001 522 664 514.3888416 664 505 Z" stroke-miterlimit="10"/></g><g transform="translate(-94,-150) scale(1,1)"><g><path fill="none" stroke="none"/><text fill="#000000" stroke="none" font-family="Arial" font-size="13px" font-style="normal" font-weight="bold" text-decoration="none" x="708.000244140625" y="512">Visualizzare lista pazienti</text></g></g><g transform="translate(-94,-150) scale(1,1)"><path fill="#C0C0C0" stroke="none" d="M 855 656 C 855 646.6111584 911.6359728 639 981.5 639 C 1051.3640272 639 1108 646.6111584 1108 656 C 1108 665.3888416 1051.3640272 673 981.5 673 C 911.6359728 673 855 665.3888416 855 656 Z" opacity="0.2"/></g><g transform="translate(-94,-150) scale(1,1)"><path fill="#ffffff" stroke="none" d="M 848 649 C 848 639.6111584 904.6359728 632 974.5 632 C 1044.3640272 632 1101 639.6111584 1101 649 C 1101 658.3888416 1044.3640272 666 974.5 666 C 904.6359728 666 848 658.3888416 848 649 Z"/></g><g transform="translate(-94,-150) scale(1,1)"><path fill="none" stroke="#000000" d="M 848 649 C 848 639.6111584 904.6359728 632 974.5 632 C 1044.3640272 632 1101 639.6111584 1101 649 C 1101 658.3888416 1044.3640272 666 974.5 666 C 904.6359728 666 848 658.3888416 848 649 Z" stroke-miterlimit="10"/></g><g transform="translate(-94,-150) scale(1,1)"><g><path fill="none" stroke="none"/><text fill="#000000" stroke="none" font-family="Arial" font-size="13px" font-style="normal" font-weight="bold" text-decoration="none" x="895.37646484375" y="656">Modificare cartella paziente</text></g></g><g transform="translate(-94,-150) scale(1,1)"><path fill="none" stroke="#000000" d="M 758 487 L 580 339" stroke-miterlimit="10" stroke-dasharray="3"/></g><g transform="translate(-94,-150) scale(1,1)"><path fill="none" stroke="#000000" d="M 590.5056638822424 342.2605254781014 L 580 339 L 585.1230864962032 348.73416584779716" stroke-miterlimit="10"/></g><g transform="translate(-94,-150) scale(1,1)"><g><path fill="none" stroke="none"/><text fill="#000000" stroke="none" font-family="Arial" font-size="13px" font-style="normal" font-weight="normal" text-decoration="none" x="621.5" y="442.5">«include»</text></g></g><g transform="translate(-94,-150) scale(1,1)"><path fill="none" stroke="#000000" d="M 950 631 L 804 523" stroke-miterlimit="10" stroke-dasharray="3"/></g><g transform="translate(-94,-150) scale(1,1)"><path fill="none" stroke="#000000" d="M 814.6736570972497 525.6595195374978 L 804 523 L 809.6668510138624 532.4279796131879" stroke-miterlimit="10"/></g><g transform="translate(-94,-150) scale(1,1)"><g><path fill="none" stroke="none"/><text fill="#000000" stroke="none" font-family="Arial" font-size="13px" font-style="normal" font-weight="normal" text-decoration="none" x="831.5" y="607.5">«include»</text></g></g><g transform="translate(-94,-150) scale(1,1)"><path fill="#C0C0C0" stroke="none" d="M 415 656 C 415 646.6111584 474.5461216 639 548 639 C 621.4538784 639 681 646.6111584 681 656 C 681 665.3888416 621.4538784 673 548 673 C 474.5461216 673 415 665.3888416 415 656 Z" opacity="0.2"/></g><g transform="translate(-94,-150) scale(1,1)"><path fill="#ffffff" stroke="none" d="M 408 649 C 408 639.6111584 467.5461216 632 541 632 C 614.4538784 632 674 639.6111584 674 649 C 674 658.3888416 614.4538784 666 541 666 C 467.5461216 666 408 658.3888416 408 649 Z"/></g><g transform="translate(-94,-150) scale(1,1)"><path fill="none" stroke="#000000" d="M 408 649 C 408 639.6111584 467.5461216 632 541 632 C 614.4538784 632 674 639.6111584 674 649 C 674 658.3888416 614.4538784 666 541 666 C 467.5461216 666 408 658.3888416 408 649 Z" stroke-miterlimit="10"/></g><g transform="translate(-94,-150) scale(1,1)"><g><path fill="none" stroke="none"/><text fill="#000000" stroke="none" font-family="Arial" font-size="13px" font-style="normal" font-weight="bold" text-decoration="none" x="456.934814453125" y="656">Visualizzare cartella paziente</text></g></g><g transform="translate(-94,-150) scale(1,1)"><path fill="none" stroke="#000000" d="M 571 631 L 750 523" stroke-miterlimit="10" stroke-dasharray="3"/></g><g transform="translate(-94,-150) scale(1,1)"><path fill="none" stroke="#000000" d="M 743.4731283028136 531.8543743905749 L 750 523 L 739.123816588245 524.645792937725" stroke-miterlimit="10"/></g><g transform="translate(-94,-150) scale(1,1)"><g><path fill="none" stroke="none"/><text fill="#000000" stroke="none" font-family="Arial" font-size="13px" font-style="normal" font-weight="normal" text-decoration="none" x="616.5" y="557.5">«include»</text></g></g><g transform="translate(-94,-150) scale(1,1)"><path fill="#C0C0C0" stroke="none" d="M 303 768 C 303 758.6111584 365.0085552 751 441.5 751 C 517.9914448 751 580 758.6111584 580 768 C 580 777.3888416 517.9914448 785 441.5 785 C 365.0085552 785 303 777.3888416 303 768 Z" opacity="0.2"/></g><g transform="translate(-94,-150) scale(1,1)"><path fill="#ffffff" stroke="none" d="M 296 761 C 296 751.6111584 358.0085552 744 434.5 744 C 510.9914448 744 573 751.6111584 573 761 C 573 770.3888416 510.9914448 778 434.5 778 C 358.0085552 778 296 770.3888416 296 761 Z"/></g><g transform="translate(-94,-150) scale(1,1)"><path fill="none" stroke="#000000" d="M 296 761 C 296 751.6111584 358.0085552 744 434.5 744 C 510.9914448 744 573 751.6111584 573 761 C 573 770.3888416 510.9914448 778 434.5 778 C 358.0085552 778 296 770.3888416 296 761 Z" stroke-miterlimit="10"/></g><g transform="translate(-94,-150) scale(1,1)"><g><path fill="none" stroke="none"/><text fill="#000000" stroke="none" font-family="Arial" font-size="13px" font-style="normal" font-weight="bold" text-decoration="none" x="347.794189453125" y="768">Prescrivere un nuovo farmaco</text></g></g><g transform="translate(-94,-150) scale(1,1)"><path fill="none" stroke="#000000" d="M 451 743 L 524 667" stroke-miterlimit="10" stroke-dasharray="3"/></g><g transform="translate(-94,-150) scale(1,1)"><path fill="none" stroke="#000000" d="M 519.9959113793569 677.2453537917456 L 524 667 L 513.9241226420728 671.41324092567" stroke-miterlimit="10"/></g><g transform="translate(-94,-150) scale(1,1)"><g><path fill="none" stroke="none"/><text fill="#000000" stroke="none" font-family="Arial" font-size="13px" font-style="normal" font-weight="normal" text-decoration="none" x="437.5" y="690.5">«include»</text></g></g><g transform="translate(-94,-150) scale(1,1)"><path fill="#C0C0C0" stroke="none" d="M 655 768 C 655 758.6111584 706.0395328 751 769 751 C 831.9604672 751 883 758.6111584 883 768 C 883 777.3888416 831.9604672 785 769 785 C 706.0395328 785 655 777.3888416 655 768 Z" opacity="0.2"/></g><g transform="translate(-94,-150) scale(1,1)"><path fill="#ffffff" stroke="none" d="M 648 761 C 648 751.6111584 699.0395328 744 762 744 C 824.9604672 744 876 751.6111584 876 761 C 876 770.3888416 824.9604672 778 762 778 C 699.0395328 778 648 770.3888416 648 761 Z"/></g><g transform="translate(-94,-150) scale(1,1)"><path fill="none" stroke="#000000" d="M 648 761 C 648 751.6111584 699.0395328 744 762 744 C 824.9604672 744 876 751.6111584 876 761 C 876 770.3888416 824.9604672 778 762 778 C 699.0395328 778 648 770.3888416 648 761 Z" stroke-miterlimit="10"/></g><g transform="translate(-94,-150) scale(1,1)"><g><path fill="none" stroke="none"/><text fill="#000000" stroke="none" font-family="Arial" font-size="13px" font-style="normal" font-weight="bold" text-decoration="none" x="691.544189453125" y="768">Inserire una nuova visita</text></g></g><g transform="translate(-94,-150) scale(1,1)"><path fill="none" stroke="#000000" d="M 726 743 L 577 667" stroke-miterlimit="10" stroke-dasharray="3"/></g><g transform="translate(-94,-150) scale(1,1)"><path fill="none" stroke="#000000" d="M 587.9657186070855 667.867764616828 L 577 667 L 584.1403317426208 675.3675362326866" stroke-miterlimit="10"/></g><g transform="translate(-94,-150) scale(1,1)"><g><path fill="none" stroke="none"/><text fill="#000000" stroke="none" font-family="Arial" font-size="13px" font-style="normal" font-weight="normal" text-decoration="none" x="609.5" y="737.5">«include»</text></g></g></g></svg>